<mxfile host="app.diagrams.net" modified="2020-11-25T13:42:31.801Z" agent="5.0 (Windows)" etag="aBmSyEWjS2NN8FLSY375" version="13.10.0" type="github">
  <diagram id="IKzuX7tQ53apmIo0_RkH" name="Page-1">
    <mxGraphModel dx="1504" dy="611" grid="1" gridSize="10" guides="1" tooltips="1" connect="1" arrows="1" fold="1" page="1" pageScale="1" pageWidth="2339" pageHeight="3300" math="0" shadow="0">
      <root>
        <mxCell id="0" />
        <mxCell id="1" parent="0" />
        <mxCell id="_WJJukSwM0aKRXXMK2_g-2" value="" style="image;html=1;image=img/lib/clip_art/networking/Router_Icon_128x128.png" vertex="1" parent="1">
          <mxGeometry x="254" y="140" width="80" height="80" as="geometry" />
        </mxCell>
        <mxCell id="_WJJukSwM0aKRXXMK2_g-13" value="" style="edgeStyle=orthogonalEdgeStyle;rounded=0;orthogonalLoop=1;jettySize=auto;html=1;" edge="1" parent="1" source="_WJJukSwM0aKRXXMK2_g-3">
          <mxGeometry relative="1" as="geometry">
            <mxPoint x="294" y="600" as="targetPoint" />
          </mxGeometry>
        </mxCell>
        <mxCell id="_WJJukSwM0aKRXXMK2_g-3" value="" style="shape=image;html=1;verticalAlign=top;verticalLabelPosition=bottom;labelBackgroundColor=#ffffff;imageAspect=0;aspect=fixed;image=https://cdn4.iconfinder.com/data/icons/logos-brands-5/24/nginx-128.png" vertex="1" parent="1">
          <mxGeometry x="252" y="290" width="84" height="84" as="geometry" />
        </mxCell>
        <mxCell id="_WJJukSwM0aKRXXMK2_g-8" value="" style="image;html=1;image=img/lib/clip_art/computers/Server_128x128.png" vertex="1" parent="1">
          <mxGeometry x="190" y="570" width="80" height="80" as="geometry" />
        </mxCell>
        <mxCell id="_WJJukSwM0aKRXXMK2_g-9" value="" style="image;html=1;image=img/lib/clip_art/computers/Server_128x128.png" vertex="1" parent="1">
          <mxGeometry x="110" y="570" width="80" height="80" as="geometry" />
        </mxCell>
        <mxCell id="_WJJukSwM0aKRXXMK2_g-10" value="" style="image;html=1;image=img/lib/clip_art/computers/Server_128x128.png" vertex="1" parent="1">
          <mxGeometry x="260" y="570" width="80" height="80" as="geometry" />
        </mxCell>
        <mxCell id="_WJJukSwM0aKRXXMK2_g-11" value="" style="image;html=1;image=img/lib/clip_art/computers/Server_128x128.png" vertex="1" parent="1">
          <mxGeometry x="330" y="570" width="80" height="80" as="geometry" />
        </mxCell>
        <mxCell id="_WJJukSwM0aKRXXMK2_g-7" value="" style="shape=image;verticalLabelPosition=bottom;labelBackgroundColor=#ffffff;verticalAlign=top;aspect=fixed;imageAspect=0;image=data:image/gif,R0lGODlhLAFkAPcAAE1QTxlYhURph1F0lKm4xefs8vOJXLTK2gJakl18mWB+mpWks21wbDVZdE5yk62trgE9cvpwLypcgwpHZARjmiFDXJu0yBEmNRRJdeTo6wxRiZ1dYYSpxBlkmTljhWmWtyhKYzF1pP3+/tvk7AJVjnGHnuzx9gtKe3OkxBlFa0V5okVlfXOZt4+OjAFBeRVAWBhUews3V/P2+bXP4BU6U2SAnAJFgCZmlliGqktbagNNiWaKqAFAdPDz9gxPiAJKhNPc48nT3DEzNZu50AJFfVl5lwtNhCg6ScLU4TJVbwtDcSZWfQxTdld5mQJTjCUoKwxZjhg1Sm2FnTRrlSoyOQJIgmiCnVNyj/n6/Mza5PX3+qvC1XSKoEuBqQJQigxNhgJCfPj5+q7L3dTU1NTh6hdbjwE7bjtzniErNMzc6IScsgtGeaK/00ZtjwgpQQJXj+eghjM2OM1oQgxQhgJMhhBongs8Ydvn8A1ckDk7PQoLDQs0SwJRglqUuQJJftrg5o6yyztfeg1VjQ1UiglJgDU4O63F1niTqwceLws+aw1WkrzP3hU+Y/r7/VqLsA5Jd3uhvsvKyxNPgQkyYAFEeQE1bkxvjFZ3lwItZGqEnS1Qaw1SjFBphpSswcHM1nFYblN2llpYV0qIsbrByOnUz8bY5QpLhFh2kwpMgExchQpSiGWPsqXE1wNYkAlXjWmCmw5Nf0VFRMzW3ypfjAExZ26EmiVNdwlSjAZJgQVWju/t7QpPbjpOYA5KfwJNghsvPoWGgQgwUS0sLAZKhN/o79bg5wZAeAxWimJjYQdGfQJViOq+sRFQbQdPiQxLhQZNhwdEdwc8ZTt/qgk3Zzs5N52/1C8wMQtFfzY0NAdOgG2Cm8/f6gdQjQxhlwJeljc4OPb19fz8/q+/zBVfkUA0K5K40VN+oy01L97f3ihunxwfIwhObmV/mGqBl/j4/BUtXVlqWfv7+/79/AZDe2p7oRBbiV9cfxoZGMLa6jZARqjG2WyEi6/H2Hp7ev///////yH5BAEAAP8ALAAAAAAsAWQAAAj/AP8JHEiwoMGDCBMqXMiwocOHECNKnEixosWLGDNq3Mixo8ePIEOKHEmypMmTKFOqXMmy5T8R8XQtI6ULXDx5OP253Mmzp0+XIrSQghOhaAQDBuDAmZkBHBacIkT8nEq1qtWFIhrJNGC0q9eiSOE84FesgJZ4jcJFvcq2rVuSWGQg+WAv1IYNcvLq3Svn7qccmqDx4HFilrlDW/5kMNEjngi1a99KnkwZ4eMRnc748uPrmS8+Xrzw4ZMNFiwm2fyoXk3EDyVKxjCY29LDX9ACGYj9+TMiQ4+z4dJKrUy8uM9wMkaMQMLGAqRVOFScuUF9XJlxN8a5Gs2dz2pYsyCR//FHvrx5f+G0FCgw4k8WIBnWF5CBJa3x+/hBZmVvQsR58iLIYAJ7xBS4yAcBdLcaDCqwYcJ/EEaIxBQY4GABEO4tJgNawuXn4YcNhdODclpECKEMpWSmoB/ZzLKKIeGYKKNtxBAwxRKrHBCjP42YMAJ87RXzRwG/NWLkcCAmaZwIYbBXwIzmNTICG44cAwERo6k2xxQcIOEflBCKiAQkOHTypDwyitADMULihuEIBYBzVjzxKGnnVVj4OEKJYPpjwphn+MEDH8p450sAXQzxZJ8QimACEFsswmiEMhTQZgaLEOBJMcX4JkMjSN4p6kla+Lhon8RQOY4LWBba2g0s8P+z46T/qcknrTKSAYkttJjBgwQKHKKGBQd4EsQIJoQR6qjMZiTiCMS4w2g8pQDShS8u+KKMMqqpogIkpeAq7rhZcCABJrTwYEYlldCCLrpmLOHADp1YYIixWWQgQzjN9guRDAU+yKgJhnxwgx9EbMtHFVWU4Yii40bMaCOLsCABLbRAwAMEZkDgscdmhIwxJiRPA4ESHjRxSCediBOELGQku6y/zGqh3KkzxmMCGaxA0gUURPygcNBTQDLDrRInHWEBbOCwRLsab8wxxx1XTTUtSkgQQCIYd41xvG1YIawF4vADBDFa8EtzkncM8QEOH6AACQeAlFMNG2ywUs0QgHD/gMIHfXQRQj0/VOGLE8r8AIYXiaah9OMSQtLGCbRUMtjlG0sN8saVYKJEG+ZIgEHIVIfcrrtdV2KGLR6AssMhHFjAjyfE9DDz2m1hIQYHXeCBBxS5uEJCK61A4bvvULjihBOg+VK4L6FVEXQZH7CCM+SQk9EJDhKs6yslmIcfNQTuYlDDDuYsQTrIIZPefvune11JIhK08ToknfyBe1tkAILDOHSggxPe8AYEIKAVb1DG8kKjAy/oIIB0qIINJlgFOkDhDJAYQilkgL0OpoEDO5jFPNY1GPCF74RmQJcHIMECHMzCGJX4GMhkOLX32dB07BpZIgLRif1VpVQFYA4g/yDxthDcoBsIUKATQsPA0DghF3joQAi68AEOlIMVSLgD0jooMSwcABLmECHHSuiCEp6QB5Qgn+d2YAEQSkAJIRsMDedIQ6vdUHUSOEUteuhDn8iHgwDCQg8KcAcypAEJBziAPvTBikbqwxD8OAASskAGOPWgEVzE3jY6sYozwMAYH3PBa17jgjKWkQdlBF/nzOAA2XEgfcbo2AnpSEs6rgsDVygBF2pBgD7uRD2MmVUmhymubQwBEioIwBpc4DFRjnKUpYzmayCwSgFwwBOL4MAZMBDKM17OY3Ks5cdI6IF2cOGc7OilL1cyIBNo4UvEjCeY5AIIFpwhANeABjNFCf+GZz6zlKOkJi1c0IZOwGwITgMlBErpzVmOr5YdW8IpSqBLLiTgCupcp0nWVAB3CFOeID2PDNLgHBzcQBJrmIcxpOnPlgaUXScwhwViZohVzOIazFyoKE05mFM29JvhHOcaBNAOiu7yCnochUZJ0oj1fCqkUCVPOIjBDw58oAsnvcY8XkMESoCBCGDtqlfH6k91VcIFs2CBIQpAsFXcYA2gNAYP+hnNaKKSoaj8Z0+9qTEJFIGiFFXAFcxZgiAsNSQmMIFH4RlVLjoqC/w4JlYHodV5iDKsrcFsWF/TTzB49mPGCIA5OJAFAfHjAy/UGEDrylrW3tW1d0Ul5iAgiTb/aEMKtShBLU6hRy5Q1LCH3Yia5iIKFJRDDKUoQFogw9jG1ioq4Yhuj7YxAzYM0RFnGEc2kkEEz86jNatRTWY121WxltFjyZgFDjgQBBlogaQ4CAAoS9lPUrb2vgzFb13luAZg1UIKAL6oOc+pS1kEFyPBIUM5QmBABBAQAd6ogzT6QLdqIPcO7tRCfYwU3ehGJSpg+nCHpWskLIRBC6UiRhpmsAW+caCF2VUFLmwABhd81Q8/wHF4d4wwhIXVsy4whpDTqwIWXMjEd9gCJKYAho/9U79QZi0l7ssDY8DAAe0AsBTagdRa+FaXutTfgSmCBWIcoA8HhLA31sxmb7SC/wRwJkEBu5GOEIiiDyjggBXtVg1WiOEAi0BCKUqRhkIbOg2lQMIiZqBINgxhCOXoGweI6AhppOMGUPDCD2zQXc+CwQY49oWoc+w8P1QhxwxTjfQy6+kaz2MNkriBOVjQCSQoKzlKPgMuqAmBVteYtb/+tZTv+2v77hQCvfAAO2qRCSm8oghXYAdFpWBUXRZgzBERQZ4MEQJF5MIbDW6zuNcMYQMScIkNdKADddDA5S0PzgR8A5wXyO4fFG6CNpDgBD+dDIb9gA6+CGDABe48e+s4xzkGK6d9DYZ5XEMSsziDOT5wITT1aARfPEMV2LXQr3oa2NEUdl1FTl+Q77SMyf9YwgDa8YqWs+MKV7gttQHr20NkANsOSU9i/YGFYlQDBZVORx26weZwlxvc4DZ6gw+IwHi7++lOZKK7vaAM0TARNKJ5oMC3Tgd7I9zURFh4jTVGhGT0IgARV4EjWDAEIGABQCa4wyIssIoyNDmGrOpup4E88pD3Pdgmp7ILYCEABbTcCuwogiUS8F8tG5ULUlDDzXGekKwkFpPPJcbuAGfpdHQDiQeMd7xbkebQE6/p8nb601e/RKnzQQdYHzgEva7vsHtW4clwhiTQPgUV4GAVGSxFbcqjHjLwg+5TsIELOO7ZCYK11WLlO8hrTHLq2/j6+D1BHtnBDiu84qJXeEX/JsYPYMDqshYLuDblDRIOd7iXVk1CQjX81gdRSCME6ehAB/CAQBIskIlNxETs9kADCEGz53X2xjAKiG8UNAxGsHtlMAtTcAZd4AgfwAIcwAbJhQWMpR7UNQQcYFLDsHzs0ny192O+tndA9nF/N31+V1fzAANtwA6vUAM18HKWwA5SkAni53iPt0e6sH4DEQ53cEjbYBYRA09aQAzbsAjWZVX1Z3/ScH/4Rx3ZYR1lkIVlAAVb2IVaqIVWOIFnEAIq0AVdIAoWCAmAMAQHUArbYAJoch7atjOlsAhbEIJnIAh3h3efxjDkhYIMF4ithn3EJmwk9wizcArtUAOIp3jh/ycF3kd+PnhOXJB+QrgzbCAK+mdnKDAEM1AKZKBcjwNi5BEGMjBIxEAGWYAEMyAG/MBIbHA3eDOLeMMK+hBJi1AKWVAMd8BWMhAGoJImPXAHdXgAbGBV5nADmzCC7FIJxtCHDMNpf0hetyeI1kiI1+drrDUPATCD3WcFF7V4mWAF3teDWkZtlFgCnRCE2NYITYgCnkcBHTB04NYNdVBneFYO+jADSLANtdNczjUppTICxcgKIAhjs+ADikOCHZdvhRONpsaACodZ0gh9z6d31vhxGlmN0jd4HnAK3FeDp9AG4TeO5NhyzVZ+6HhOvNQDY1YApTAE0tANeGCP+lcH8/9YB3VAAeT2Bt5AATppZ/nYZ2LAj2kQiibwdiDVCJVyB9tQCq2oD44WaSiwCl0wHYrQDJvWZM1kgv+mgAsIlvkmkc4XdmVZkRjJkRm5lqWUcovHDjaoeJZQBDtoBTVgkuLXbJmgACvpWwQADoclD9ugDyhQB2s2dJ83dDu5kxTQmIzJkzzpYKS3ZkAZlNJwZ3iGAnXTZ/ogBp5ZlDMQmqI5mqH5mWLASHtTDn7DAn3gCF2gApc2DoJwCw9UOCv4afjWdTqAgLQHlmJJQfrGgMKJbz8GiGt5nDYmCR5wCeygAOB4BQLgAHdJjtRpBTxIft9Hc37pkhqlBSwwCwEwB8f/MA45qZONeZ7omZ7q2WYNJm9xVnre8Hkd0A36V5/2aZ/jkJ/jgAeKADwMFEHDeWr21nV0UIBaF0C8iYAKmIBiKUHBOZwQymkSGnaY1XzQd3vPp40uQAgSsHgKoAA1cAkCIACnwIgmWp3kmJIlMHPpSABhsFSdsAZrAA1KsAZKgAEwEAD1QJ46aZ6Q+ZPq2Zg/OaQ/ep7kFnrzNnWt10Tstm4DOIBSx3pL9H/rZoAI+m8JmoCFo6APuYAUFKFg6nzDqXALV6GDSATKeQofqgAJ0AYCsHh2aYN2iaKSaH6UKAWjgAVLxQIyqgTQ0AuEQAjJQKNK8Ag5Wg9R5KNCymaQ//mj4zZu5bZ0kmpApEc8b3B6ohdn7+YE/gd1AthABXqgVtp1Wcqlp+ab0RimqrqqKuhZHNoGCbCmDuABAnAJIGqDcsqI1Vmn2ulbo9AIMHoCKUADwTANiZAISpAMpmAKuDCjSvCsGBAA+WmPjMmekGpASYd0kyqpp9etl5qpcsapnJqkrMdATeqko0qqpVqqp+qbY7mq8MqA0JemCRCrCSAAgWAJIPqhuKqrdKqij0dgo1AnGmUBwkoDLzABMfALaHABUWAHiQANuPAMw2AKg/qshQoDO2qPRrqtHvuxk4qpogeucdapUgqA5hqq6Yql68qbqIqqAfqg8JqhKdcGRf9Qrwowqx5QBCCKs7hqnShqneRnp75VC0CgExolDiegBDQwAUwwAXtAA1HwCwyLBr8QBYwQscPgA89gCoQADYSKozo6DtWadA4GsqXHrd46smwLruXqBUtqrgW4sv+mri3bmy/7svG6b2jqAVdws2wqAA0Aq2yKs7dqBacwAP6aouf4g1wgCwSrUVuQDI8QBRPADMwwAeuwBwlLA3tAtVSABlYbBchKCFvbDEZACDNKo4aqsXgwDkK6dA+2dN16ekyHqbjbtiQrpVOHsnObrgdoty3brr65pWEps/JqA6ggAQJQBM6bAA4QCB4wAE1wCjhruDUgBW1gCdNJnSlZfhT/tUcZELkaFQTJgAEIuw7r4LRusAdMsAdusL4x8AJS+wtUwLBXW7qm4AOqYAoncLE3eqg12Q2RSUC2y3S3W7u1K3qoN7IlS66rB7efym4qS8HAa4DrCpZdyqAwO5xgUAUw4AFzeQlFIKJL0AZNkAAlHKtN4ABryogfGrTfS21SoA3iAA7ycGBZcAIngLC7sA7MsASZawcv4Aa7MAGIoLl7YAcTYAf1Gweh+wvBwAgn8AVWbAqo8L+EqgQwAANlMMDkhkAKbMBkTHplrLvx9sAQ/LZP2sZPqrIYfIB367K/KZxGwLwDAAo36wAS0Do3e7P1Wq+Ae7hBS47n+AqHAAQ5/zxmi3ACveDDu5C5E7ALF+C+e7DEk+wGbsAE69vEvyAM2IANQmANR2AKVvwFRmAEzmAEpuAMggq2NxrEX/x5PSlnDGypbSvGDay7JXuyKOukbvy7cWylc5yA+fagVRAAfnsJenwKArAEc1kETfC8bFq4sdqvhfy9mZB+izxmQeDINBADkay5MZDEChsDmzwBFzABkzwB0dDE96AH6hAHcfANR3ANVpzK+uwMVuwMzrCsgToPNDoBGLAEOuo74CZvA+SetozGDp3GvRzBvwyAwVygBiiqBCq8CZqqDAgL9XMKzKx4EhAIetwE0wzI9hqrbNqvi8u4mVACnqCnlJcFvf9wDS+wB047v1C7DruACHawC5ecsLsw1Oz8AnEQC0+gDkLwDVSwBvmsykaAyokQDaiwyvy8yqrstQBc0AeNB+CGQO/W0A/NywSkqbwLdf/XQAbqxhes0b05QcMQwqdQwpdwCh5wwiad188byCl9q9i8q4j8B7cTXDS9tE5cAb9wAU9AtVE7yfBbD3uACOsAA8ywCzRABQBQCOrwBN8QB0791FE9B4zgBhjrp9ewyqh8ygCdDGvwCBkbAF+MB5TaCmE91mXtwJrqf2vsy8DM1m2Mweyabx5tCZdQ3Iq3BIEwACU8zXrN13zt13KKoq/QCYAphP9QDJJwAoTArNCQCHb/sLBooA6iS7VNe9PrwARMAAMTQAV5kNRPIARxoAQ+cMqsbMWJ4AbImgjTsN/Hiqynzc9f8M+svKwnYKOPILb1YDxQQDzzJmfwhsYPrsYMbda8PcEVDdwbXQW4oMxXUNfMfNcCYNLGbdLSvNcqrdLQXZ01ANPdLITEAANrYApZ+wi9YArNQAiU4N2f+wQ8/gtH8As4jbkXoA5ELgxxgA0pcMpP7QOjnd/7/eTTMAmYMAnGis+9oAT4vKytvN2q+wgHnqM6CgUIsOAmG2cO3LYRrsbjeta/XNGi6rKS0KEgXdyWIAENAApNUNx5fdLO6wHSieIfCpc/a5cKoAZiZt0C/zECMHACppACFeDoGMAIre0MPmAE2cAD0RADU4sGPT61T2ANQlAI9MwI803f+5sCbhANSqDfUB7lUj4J78AIRsALocAIw4ABKYDPVy3gXnsCXt66Ye4KrpALb+BuJcu2Do7bai6uFS63bK2uRsDhdD0AHsC8JZzHl7Dnz1sEAgAK1bym0M2I3GcB3InoAlEAyqTdhNALGCAJFYABR4DrKdALsKABGtAMuIDpmi66VADf2BAH1EDqlY7KquwDGOAGwRAN0dDqrj4JDp8IzpAD/XAE0JADyFABw+AMMf4F0QBrkrCsqIDFhODrOHqowi7sCh3WZg5vD556qafGJsu7Av/Y2wga59Fc3G3Qx20A0gOA7Xme7SmcAE1gzeAe7gnA4uZOEDIgATxsB1UeqM/Q7ikw9RXg7higBEawCbdw4zzw3XsgutZA6kqeyj7QC+isycGQ9lTe8A4/DQYPAoyACyvQD7xgA7CQCISwCXsQDbawBMd6AhgQ4KYc8qjwCLAA7AkOBcmTC0/X4O4J4TB/1r2bsqoQAALwtyRM7cwbCBUQ4tgO9Nl+UaDg3C+sAIL+oYae9AURBlPQ2lGwBzEQA8FAA5OQrMuKUlZPAynACCmAARigAVrfDMaQ6YGv5E/9DMmgBNMg+8GA8GkfDA4/CRBvChCQDBrwCLy/tWXgDHr/Pw22IAHhzLS9EAxGYAfXMN/6jApZbBrMcKj1cPJv1vjjuvJm/vIRzeZMFAByXtygABBtJHiwlGRPhTZNBoC6dKkJqCYJBFQQoCDBxQQKNGqsUSMjgTD/RI4kWdLkSZQpVa5k2dLlyTAeHvWKMYHJhF9onqD5FSWGnTWEmn3p1SsFhhQVkj5K8WUTty9Rvzj7YsSUjzMqynDbdOsHmETTYsQI5sbspC+aclQgRCiasWcBPAzatGdaiiV2gilxQwjRGjfRBEn1EdXIYSOoYC1mAiNAADxQXLnK9cbJZRKZNW/m3JnEZdCgB8m90vCSAw8SBFxpQAOEpoSgGDJsUsQD/40Kli4WKbLR96lDo+K9JF7c+HHkKEVMeQSrJhNmEybQoHEkJxo0UWgwSkTo2S1nPmwdPYJB6RdTUg+bWsJlgQpnP8qcuaGo6495ZqYFs/MjCbBYeBAAGRDA8KAdCTaJ4a4U9FICEVMQucaNaRQpLCofMiwsw6oOQ0UxJhqDoYx6JnOllTc+w2yzFDdzQrMWM7sslwAksOSUhk4RYCBLLGkgiSQqQOgh2RxyIJDXQNAtgSIy8i2BUxbIIDkqq7Tyyn9UeMSIPSbYZZd11tkjmF0m2OOFKKK4rqftoHmGK2cEOcoIqqIyxQhJeAEgjxw4WcISNVYpo4oybihDkE0ylP9EkrXWuKKFHCC44QoJuEmBkKP0WgMRZ/5yww4LMdRw1C80uLDDxGB5hAlYGgugHihiRaAVFV9kUcbMWkzxmABWa6gIS1ITQMcGAmlAyAYcILIhH5PQREjdeMNIo1MUGEUGLLPVdtuTmmjuJzCZgeGFPdaZABEm1nFDOuqsw0477uZ5JlEjpIpqDl6E0eOeUFbQkxdOBjLHnC4S3aSLLoYZxgdJNNGkl2Z0aEaDNa4xxZlelKDJBzfWCGYSCzU0dWRTfTD1C5EzPMwZVBI7AZZdJHGsHlhPpFVFFt9I8Q1XaryRoUsEWIKgU1Yw+kdnNbGkCYcGWCEQJF947Qompb3/aAAugsCCW667vtKcNWB5wY4vYWAmRDf2sEO6dZkY86bpoigEG2t6YkQJDNGz4YskntBDD2s4yefvWDjh5fBUJJAkBU0ECGCoL4a5ypmgNlFijUcwyNiHNXx4xJkUlEh0VJFHTrlkDdVDxRmXmVg1xMfqiawVFEN78ZglVgNlgEsGkEC1K65YQYBANEkikCRAaKCNhHxs4NgKHK6AaquLGGCBAkTwenvui9vhZUZi2AW6MvfYIwYmXkB3ghdo2CNd6Sa4QB1sqMEGmyOuynCTKcrQJJZYkKNwg/sbL3Kgr3vkIwBHeMI9LnAN1BUmEWvYRMVgQRQlOGMaX9BYLwgR/0ENlCyEpzNdBFF2KsMchjEhgoFjxjG7VuDhdzdaSNCWIIHgPW0FyfvRawRwiTZ44GkN0ITUnlWBJAzAaqBIwCi00D0oRlElLHgZucYnnV24YXyIqAnb1sGEMkVjAnZ4gjrUIYQ8UIMKhNBQAJpwhoYFIgf9AgA5hKEOXqxAHX+zRgAqEItQhEISQ+HQVEyhCDtMAxqJyJgzTuADDDhDCdAY3QhDeEmTWXKEpEvdhUhnmKrA4gSu20ULA9AG3Q3gFL7LXdECYbTXNAAEIEiCBxgyAAesQJbRe5bDQKDEiICCC0AIiRSNecx/fO8EGIhBCpixhwv0RDpdcpsWJ4C+6P+sgwbCiEUZ45CHNW7oCxU4Aneas6gU8AIZochBDmIhjHtYQwKMeEIskAEDqHCIQ4pYkIOCQZMvrKFlRsDkJQ16UINyklQLJdUX5uDQOcAiGzCwRPCUKDQPtOESV0iCJXT5vOghKQm7g0hrkIgsEFQgEJcowu4WYAJkxlSKW5AANJSAAQxcM01U0AkaaNA+9E3ADesIwBICsAc0AOCOwshDHDrngzkYIQrCsAYVqPAL6kxDCTKTBAb0BMhZbPMJT+jF6MT5BUTaIRrBwIAbeuEGVOxFCdFQxCYPuolNFDSTCkXZCfmKMkzOQbBz8NUVPJA7AQhgAB59GvKUJ0sQKHb/AE0QgNSCRMtZOst6oPBEMWX62e2JgBj86IQKYECINShBtXbYg5rQIIzsVOAFE/iiBJhxgTuq4wlNVYIGALtNawTXGmV0YBQYcZRewMI8kkjEEWIhhEeYdQ4ZmgMiY5CIYDzCDUZwwwmCkQg7xCBkCL3rQfeaur76VZ8bimBh5jAFHS0hEBoNhAQGwJpXNoAZSEIi1HanEP46qwI/QiLW/rA10CaYe1gwwQgWwYYPzAIVJ8CcamOA1NfuJAoVYMYvxvqEb34jEb412Quo+oRCAIBuuhWuVbejuWtQRQmoKNkznqEhOdkBuydwAyy6e10lBEMRJwxhXot8SSNvUqEb/1oyQzn03kAMzQG4ZB4oBDC85wVJpbIMhGwoi1KVBikQlrBAD7SnYDR3Tx5aKAAQDlDaQZxAzo9QgpkugB1hUOGbeeBzHhiRV5MxQhhCAKAQnmANYcQhFHmgKqKtgQZ1XOAdKYAFQW+xiTLMYhAamoMpJLHVGPhgD2ugQTSCXFeE4hVRSU5oykw2KhEu1IRQFQAnBNAGB+R6yovVpS6jkASjHc8DTDuW8WIZPQEUwRPDSXOzpYgFGRTgABb4wA2GkQ2JnkAJMXDDnYWADT4zQgNz0IAqUsBNYKSbAe8sxHNPHIpYDPceT8gzFcr5BRUcQgU6uAUmPYmBOaQgERgQcv9BNTAIQcwBFT4QhH0GMYhW7zWE0z3veh161i80ow1XCIQHpqzrxSbhysrzqLGUB4pZEnHAx+roITLAbGfHPIoiCAcWekCGLXCgC/WYA7ZRsQbWXoAKtmgGuTWQAiEAAAD3oEIokMGAFvQDGe6OBQB2WwhhAEAIjU7BI/KRjwpobg6JckZ4fJDXvEoCFgktsiLeigg3BMMUqkaUCJVMuogzmdMawLUHBKDrXA8gscYa3iuv8BokgaB4ig/SChxgAXDIQ+aTR6YI5CGPHmQBwlM4hip6fgJyQ1wVGLAGAEJxDz2oIxQM+IYwno4MYDAAALFoPRUYwOjgdv3b2IhDHI7/AAKBX+MLly5ykjOkAbTnNRtrwO4aNHAWvCG/7iQkmb85OQdVbNwSgA+88xrbAIDtsL+0lGXjahAEz1Je/TLFAjGQYIEulMHzx3j4IwjdDwDoIQ9Ptwbh+rFoZGgBp5u6QhACaxCCrjtAIYiDQhguM7qAIzgKcsOrSwKsgxsEt4O+ORCEE5gGN+AiRJqGXoC46jOvu9MncsO17eM+wXul49EE10g8x0KeAbsCNSgAyVs/HVSwHigFC1gFzqsAazgHACqEfpA6eLiHewCA//sbIWAA/IPCfvgGa0iBE1BAIdg6A9St+/G9Iwg7WJCEssukh3s4WFgrROitnzgBQkCF/02wA0Q4ghxIgmcwgl6YwCOruHEbley7Au7LNStDHiShgSSQpSTghOQRvxVIAMjbQUdsNhG4A3GYuuCKg2/4BnsqhFAAhqc7Bz0oBAZABtR7AmRQKiukAmzIwiy0BgZUxSy8n6r6hV+IAQwolU0QBERRBF1ElEFIBLNABMGQszXAKTkxi+8ygkGYQLxqKJHBtT90gKAhMBqQpWk0xMSzhENAv0fcxmYLgzEYhRaQvTxANEKLhTyQuic4QmTIg30BJGGoAFhARVeMA1esx63LLWE4gi9MAUnAxVXbBAy0DzkThBiAu8DYBA5KBG57mWD4LtBDHUxShUHYuGe0MhikJf/ZErDnoaUmkBJu/MiYEwF0GIUH+L88WEU0KsVNfAIh+L8nqIA5KITem8l5rElrALfgup/7OQJYUARcvEW8ukWfxCtnUEg72IS2ioFoOIEQ0osPtAOEIkOK/MMm0ARausjLSrwV2AFxAAeQ/MrJy4BRWIAWKMXWE4J2y4NQ6Id4g8kj4L2ZjEu5XMA4ALd8oEtLFAIMGEqgLEOAhDhd1MVNYK6y6K45iIYJUi3zMhlV2ISpxCVdu4RiSSkgIcRiw0ZZCAew3EzK04VIeICoA4BvkElrKIRvcEtqYECZ/Aa5bE16pEvYxABX8Md//EuANDIjC0wa04DCjIJEIMGDksj/qfy4KWsCD8gsyoTBBiiCTtAFznzO9QOHz1yA/4sFaqiAQcgHauCzQuhO75RJ13RNBPRJ2rwFOrgF9EQ4iKMLJMNAvFKEQXgEHWvPEUK4x8SlhahKZ8msF6iArRyF9INOAZ08cBgDAngAArAAtuzOPsuDQnDQ75RL8KTJFIAC8sTF+YCCZvgBOmiGZ1AFicwrvyyyhtPFIzuoQXAAP9w1yDROq3QW13AANfiDAa3RbZSBzwzHWHjQBuXO7/RO1ey9FFAEKPBHHViFUWABTtiBdFAFKPCFH+DQZng45CtDErzSKw2hFMXPAeAdv2sCZyGiF1hOCygAGz3TbQyHDPhG/+rckx6F0B/tTmyo0As90kiQhVEABzZggSH4gC4wFFWogip4hgukiyu1TSo9OBUNPIbIqEswuciyAk/wSjSt1G3EvDHI0XXk0T57UO/8hiG90FvogA/4AEC4g0XAhzvQAiBYBA5ggQ84gzKI0hAtMkMVBEN9uGNg0YUgqSYwREChUUsdVpAEB3T4xgeYOgftUWoAgViBgmMo0lwQhFuYBXqgB/fYAkhIgxk4gAb7ABVwhHqYUhFdTyp9OFU4hvvaPtkokkvQhEBoAgIwU2Kt168MgwyIhLHEP5nsThDAA4B9VsnghjPAAQfgBE6YBVvQhgXoBDFAAjHYhjtQAS+w0v8yxFVdHQR1NSyNugR3bYNM8IQnsleS/Up5AAddQIcc7ZcQGAcoCNiXdYUzgNVVwIFV2AFOsAd7aANQUAM2WARAwAMvuIVjoD+Npb9jwNhj2J2/Mw2PHQA1GIEcLFmqBct40IUMKIACIIM+lQaXfdlxGId0KFgWeNUNONtP+AR7SAV6SAWjuoVccAJXKFq6pb966FWPbYKHkNcpqVq/HVAtMAFiOABI6IIOmAxFwIMy6IAzsIdPOFvI/QQJsAXKtYUl6Me5rdt6AAUccYiWyoQgGNm/Hd0BhTb307kbmM3ALAMJcNyzlQAVwIFDyAROSAVbgIG6PYa7/ZWWitqpJV3L4B3QRugBE0iDPg2BMghMRZgFSZiCA/iAIQAESLAAfbuFZ9Xd0igCliIAmApe70VTEQjcEeAHnesARbiFdHAESOAADuCHLVgEFiiRWHGFMjiFlioBWYC5793fMxUBLAjcUiiHD0iHcbiBM+gCQLAASCDSZx0H3lCDDNBM/p3gYQ2HmhuBLYjVWeiAG3jZyKiHcbAW0aVgEiZWEWiEAliEwp2CsC2DKQCCMythGa5Xf5CH4S2FTjCHUvCHGe5hH/5hIA5iIR5iIgatgAAAOw==;" vertex="1" parent="1">
          <mxGeometry x="190" y="440" width="210" height="70" as="geometry" />
        </mxCell>
        <mxCell id="_WJJukSwM0aKRXXMK2_g-17" value="" style="endArrow=none;html=1;" edge="1" parent="1" source="_WJJukSwM0aKRXXMK2_g-3">
          <mxGeometry width="50" height="50" relative="1" as="geometry">
            <mxPoint x="294" y="273" as="sourcePoint" />
            <mxPoint x="294" y="203" as="targetPoint" />
          </mxGeometry>
        </mxCell>
      </root>
    </mxGraphModel>
  </diagram>
</mxfile>
